<svg xmlns="http://www.w3.org/2000/svg" viewBox="0 0 257 37"><g fill="#000" fill-rule="evenodd"><path d="M78.332 25.539l-.993-1.354-.632.632-1.624-2.346s1.624-1.625 1.624-3.339c0-1.895-1.444-2.527-2.707-2.527-1.083 0-2.527.632-2.527 2.617 0 1.354 1.354 3.068 1.354 3.068-.993.903-2.256 1.715-2.256 3.52 0 2.166 1.714 3.068 3.158 3.068 1.173 0 2.617-1.354 2.708-1.444l.902 1.264h2.166L77.7 26.261l.632-.722zm-4.242-7.4c1.805-.09.812 1.895 0 2.978-.902-1.354-1.624-2.978 0-2.978zm-.27 8.754c-.632.09-1.354-.361-1.354-1.354 0-.902.722-1.444 1.354-1.985l1.714 2.256c-.09.18-.902.992-1.714 1.083zM240.14 9.2049c-2.26 0-4.51 3.9711-4.51 3.9711V9.6561h-5.96v19.042h5.96v-11.822c0-.722.54-.993 1.08-1.174 1.26-.361 3.34-.09 3.34-.09V9.205h.09zM90.876 18.049v6.407c0 .451-.361.812-.813.812h-1.714c-.451 0-.812-.361-.812-.812V5.324c0-.4508.361-.8118.812-.8118h1.714c.452 0 .813.361.813.8122V10.92h5.865V3.6098c0-1.5342-1.263-2.7976-2.797-2.7976h-9.927c-1.534 0-2.797 1.2634-2.797 2.7976v22.29c0 1.534 1.263 2.798 2.797 2.798h9.927c1.534 0 2.797-1.264 2.797-2.798v-7.851h-5.865zM212.07 9.6561v16.424c0 1.444 1.18 2.618 2.62 2.618h3.52c1.62 0 2.62-1.354 2.62-1.354v1.354h5.95V9.6561l-5.95.0001v14.8c0 .451-.36.722-.73.722h-1.62c-.45 0-.72-.361-.72-.722v-14.8l-5.69.0001zM192.13 28.788V12.363c0-1.443-1.17-2.6167-2.62-2.6167h-3.52c-1.62 0-2.61 1.3537-2.61 1.3537V9.7463h-5.96v19.042h5.96v-14.8c0-.451.36-.722.81-.722h1.62c.45 0 .72.361.72.722v14.8h5.6zM99.359 3.0683h5.861v25.72h-5.861v-25.72.0003zM61.817 22.2v6.588h5.956v-8.303s0-2.256-2.797-2.256h-1.625l4.151-8.4827h-5.234l-3.519 7.3097V3.158l-5.956.0005v25.63h5.956v-7.581h1.985c.993 0 1.083.993 1.083.993zM119.84 9.6561h-9.38c-1.45 0-2.62 1.1729-2.62 2.6169V26.08c0 1.444 1.17 2.618 2.62 2.618h9.38c1.45 0 2.62-1.174 2.62-2.618V12.273c0-1.444-1.17-2.6169-2.62-2.6169zm-3.52 15.251c0 .181-.18.361-.36.361h-1.8c-.18 0-.36-.18-.36-.361v-11.009c0-.181.18-.361.36-.361h1.8c.18 0 .36.18.36.361v11.009zM50.176 20.576v-8.213c0-1.443-1.174-2.6167-2.617-2.6167h-9.657c-1.443 0-2.617 1.1737-2.617 2.6167v13.808c0 1.444 1.174 2.617 2.617 2.617h9.657c1.443 0 2.617-1.173 2.617-2.617v-3.61h-6.227v2.437c0 .451-.181.541-.632.541h-1.263c-.452 0-.632-.09-.632-.541v-4.422h8.754zm-8.664-3.7v-2.978c0-.181.181-.361.361-.361h1.805c.181 0 .361.18.361.361v2.978c0 .18-.18.361-.361.361h-1.805c-.18-.091-.361-.181-.361-.361zM174.71 20.576v-8.213c0-1.443-1.17-2.6167-2.61-2.6167h-9.66c-1.44 0-2.62 1.1737-2.62 2.6167v13.808c0 1.444 1.18 2.617 2.62 2.617h9.66c1.44 0 2.61-1.173 2.61-2.617v-3.61h-6.22v2.437c0 .451-.19.541-.64.541h-1.26c-.45 0-.63-.09-.63-.541v-4.422h8.75zm-8.66-3.7v-2.978c0-.181.18-.361.36-.361h1.8c.19 0 .37.18.37.361v2.978c0 .18-.18.361-.37.361h-1.8c-.18-.091-.36-.181-.36-.361zM32.668 20.576v-8.213c0-1.443-1.173-2.6167-2.617-2.6167h-9.656c-1.444 0-2.617 1.1737-2.617 2.6167v13.808c0 1.444 1.173 2.617 2.617 2.617h9.656c1.444 0 2.617-1.173 2.617-2.617v-3.61h-6.227v2.437c0 .451-.18.541-.631.541h-1.264c-.451 0-.631-.09-.631-.541v-4.422h8.753zm-8.663-3.7v-2.978c0-.181.18-.361.361-.361h1.805c.18 0 .361.18.361.361v2.978c0 .18-.181.361-.361.361h-1.805c-.181-.091-.361-.181-.361-.361zM137.35 9.7463h-3.52c-1.62 0-2.62 1.3537-2.62 1.3537V9.7463h-5.95v25.178h5.95v-7.039s.46.903 2.17.903h3.97c1.45 0 2.62-1.173 2.62-2.617v-13.808c0-1.443-1.17-2.6167-2.62-2.6167zm-3.43 15.161c0 .181-.18.361-.36.361h-1.8c-.18 0-.36-.18-.36-.361v-11.009c0-.181.18-.361.36-.361h1.8c.18 0 .36.18.36.361v11.009zM154.68 9.7463h-3.52c-1.63 0-2.62 1.3537-2.62 1.3537V9.7463h-5.95v25.178h5.95v-7.039s.45.903 2.17.903h3.97c1.44 0 2.62-1.173 2.62-2.617v-13.808c0-1.443-1.18-2.6167-2.62-2.6167zm-3.52 15.161c0 .181-.18.361-.36.361h-1.81c-.18 0-.36-.18-.36-.361v-11.009c0-.181.18-.361.36-.361h1.81c.18 0 .36.18.36.361v11.009zM207.02 9.6561h-3.97c-1.72 0-2.17.9029-2.17.9029V3.0683h-5.95v25.63h5.95v-1.354s1.09 1.354 2.62 1.354h3.52c1.44 0 2.62-1.174 2.62-2.618v-13.807c0-1.444-1.18-2.6169-2.62-2.6169zm-3.34 15.251c0 .181-.18.361-.36.361h-1.81c-.18 0-.36-.18-.36-.361v-11.009c0-.181.18-.361.36-.361h1.81c.18 0 .36.18.36.361v11.009zM250.34 9.6561V11.01s-1.09-1.3539-2.62-1.3539h-3.52c-1.44 0-2.62 1.1729-2.62 2.6169V26.08c0 1.444 1.18 2.618 2.62 2.618h3.97c1.72 0 2.17-.903 2.17-.903v4.873c0 .452-.36.722-.73.722h-1.35c-.72 0-1.08 0-1.08-.722v-1.534h-5.6v2.978c0 1.444 1.18 2.617 2.62 2.617h9.39c1.44 0 2.61-1.173 2.61-2.617V9.656l-5.86.0001zm-.36 15.251c0 .181-.18.361-.37.361h-1.8c-.18 0-.36-.18-.36-.361v-11.009c0-.181.18-.361.36-.361h1.8c.19 0 .37.18.37.361v11.009zM13.266.90244H0v27.796h6.4976v-8.122c0-1.174 1.1731-1.174 1.1731-1.174h5.5953c1.624 0 2.888-1.263 2.888-2.887v-12.815c0-1.4439-1.264-2.7976-2.888-2.7976v.00004zm-4.0611 14.891c0 .18-.1805.361-.361.361H7.039c-.1805 0-.361-.181-.361-.361v-10.92c0-.1803.1805-.3608.361-.3608h1.8049c.1805 0 .361.1805.361.361v10.92z"/></g></svg>